<svg xmlns="http://www.w3.org/2000/svg" viewBox="0 0 600 800">
<rect width="600" height="800" fill="#f4f4f2"/>
<g fill="none" stroke="#161616" stroke-width="3" stroke-linecap="round" stroke-linejoin="round">
<path d="M274,126 Q300,138 326,126 L328,160 Q300,174 272,160 Z"/>
<path d="M272,160 L204,172 L186,406 L230,416 L242,300 L238,520 L362,520 L358,300 L370,416 L414,406 L398,172 L328,160"/>
<path d="M296,166 L296,516 M304,166 L304,516"/>
<path d="M238,502 L362,502"/>
<path d="M192,392 L236,401 M408,392 L364,401"/>
</g>
<g fill="none" stroke="#161616" stroke-width="1.5">
<path d="M282,132 L282,158 M291,134 L291,160 M309,134 L309,160 M318,132 L318,158"/>
<path d="M250,505 L250,517 M266,505 L266,517 M282,505 L282,517 M318,505 L318,517 M334,505 L334,517 M350,505 L350,517"/>
</g>
<g fill="none" stroke="#161616" stroke-width="1.5" stroke-dasharray="7 6">
<path d="M290,170 L290,512 M310,170 L310,512"/>
<path d="M242,300 Q230,234 216,182 M358,300 Q370,234 384,182"/>
</g>
<g fill="#161616"><rect x="297" y="176" width="6" height="16"/><circle cx="300" cy="200" r="3"/></g>
<g fill="none" stroke="#161616" stroke-width="2.2" stroke-linecap="round" opacity=".6" transform="translate(278,692) scale(0.92)"><path d="M43.5,28 A20,20 0 0 1 20,43.6"/><path d="M9.5,36 A20,20 0 0 1 8.3,15"/><path d="M19,4.6 A20,20 0 0 1 43,19"/><path d="M24,24 C30,20 33,14 30,8.5"/><path d="M24,24 C30,20 33,14 30,8.5" transform="rotate(120 24 24)"/><path d="M24,24 C30,20 33,14 30,8.5" transform="rotate(240 24 24)"/><g fill="#161616" stroke="none"><circle cx="31" cy="27" r="2.6"/><circle cx="17" cy="27" r="2.6"/></g></g>
<text x="300" y="764" font-family="Helvetica, Arial, sans-serif" font-size="16" letter-spacing="4" fill="#8a8a8a" text-anchor="middle">aseed / no.07</text>
</svg>
