<svg xmlns="http://www.w3.org/2000/svg" viewBox="0 0 600 800">
<rect width="600" height="800" fill="#f4f4f2"/>
<g fill="none" stroke="#161616" stroke-width="3" stroke-linecap="round" stroke-linejoin="round">
<path d="M268,152 L212,164 L182,252 L226,272 L240,236 L238,500 L362,500 L360,236 L374,272 L418,252 L388,164 L332,152 Q300,172 268,152 Z"/>
<path d="M272,158 Q300,180 328,158"/>
<path d="M238,486 L362,486"/>
<path d="M186,244 L228,263 M414,244 L372,263"/>
</g>
<g fill="#161616" opacity=".7" transform="translate(287,287) scale(0.55)"><path d="M24,4 A20,20 0 1 1 4,24" fill="none" stroke-linecap="round" stroke="#161616" stroke-width="2.4"/><path d="M22.7,24 L24,8.5 L25.3,24 Z"/><path d="M22.7,24 L24,8.5 L25.3,24 Z" transform="rotate(60 24 24)"/><path d="M22.7,24 L24,8.5 L25.3,24 Z" transform="rotate(120 24 24)"/><path d="M22.7,24 L24,8.5 L25.3,24 Z" transform="rotate(180 24 24)"/><path d="M22.7,24 L24,8.5 L25.3,24 Z" transform="rotate(240 24 24)"/></g>
<g fill="#161616" opacity=".6" transform="translate(278,692) scale(0.92)"><path d="M24,4 A20,20 0 1 1 4,24" fill="none" stroke-linecap="round" stroke="#161616" stroke-width="1.6"/><path d="M22.7,24 L24,8.5 L25.3,24 Z"/><path d="M22.7,24 L24,8.5 L25.3,24 Z" transform="rotate(60 24 24)"/><path d="M22.7,24 L24,8.5 L25.3,24 Z" transform="rotate(120 24 24)"/><path d="M22.7,24 L24,8.5 L25.3,24 Z" transform="rotate(180 24 24)"/><path d="M22.7,24 L24,8.5 L25.3,24 Z" transform="rotate(240 24 24)"/></g>
<text x="300" y="764" font-family="Helvetica, Arial, sans-serif" font-size="16" letter-spacing="4" fill="#8a8a8a" text-anchor="middle">aseed / no.13</text>
</svg>
